<svg width="16" height="16" viewBox="0 0 16 16" fill="none" xmlns="http://www.w3.org/2000/svg">
<path fill-rule="evenodd" clip-rule="evenodd" d="M8.00001 0.25C8.14003 0.24991 8.27727 0.289014 8.39621 0.362887C8.51515 0.43676 8.61103 0.542452 8.67301 0.668L10.555 4.483L14.765 5.095C14.9035 5.11511 15.0336 5.17355 15.1405 5.26372C15.2475 5.35388 15.3272 5.47218 15.3704 5.60523C15.4137 5.73829 15.4189 5.8808 15.3854 6.01665C15.352 6.1525 15.2812 6.27628 15.181 6.374L12.135 9.344L12.854 13.536C12.8777 13.6739 12.8624 13.8157 12.8097 13.9454C12.757 14.0751 12.6691 14.1874 12.5559 14.2697C12.4427 14.352 12.3087 14.401 12.1691 14.4111C12.0295 14.4212 11.8899 14.3921 11.766 14.327L8.00001 12.347L4.23401 14.327C4.1102 14.392 3.97068 14.4211 3.8312 14.411C3.69173 14.4009 3.55785 14.352 3.44469 14.2699C3.33154 14.1877 3.2436 14.0755 3.19083 13.946C3.13805 13.8165 3.12252 13.6749 3.14601 13.537L3.86601 9.343L0.818012 6.374C0.717578 6.27632 0.646511 6.15247 0.612864 6.01647C0.579216 5.88047 0.584334 5.73777 0.627636 5.60453C0.670939 5.47129 0.750695 5.35284 0.857868 5.26261C0.96504 5.17238 1.09534 5.11397 1.23401 5.094L5.44401 4.483L7.32701 0.668C7.38899 0.542452 7.48488 0.43676 7.60382 0.362887C7.72276 0.289014 7.86 0.24991 8.00001 0.25Z" fill="url(#paint0_linear_3_2)"/>
<defs>
<linearGradient id="paint0_linear_3_2" x1="4.5" y1="-0.5" x2="12.5" y2="15" gradientUnits="userSpaceOnUse">
<stop offset="0.176838" stop-color="#FFC700"/>
<stop offset="1" stop-color="#E98C00"/>
</linearGradient>
</defs>
</svg>
